<svg width="473.652" height="761.168" fill="none" xmlns="http://www.w3.org/2000/svg"><path d="M300.95 758.2s153.13-32.43 159.43-119.08c6.31-86.64-231.59-17.18-136.35-198 95.24-180.81 181.31-185.28 136.35-298C415.43 30.41 294.7-28.75 154.45 16S.99 348.12.99 348.12" stroke="#D0D5F6" stroke-width="2"/><path d="M258.96 758.2s120.12-28.48 125.07-104.58c4.95-76.09-181.68-15.09-106.97-173.89 74.72-158.79 142.24-162.72 106.97-261.71-35.27-98.99-129.97-150.95-240-111.65C34.01 145.68 23.66 398.06 23.66 398.06" stroke="#D0D5F6" stroke-width="2"/><path d="M222.72 760.2s90.91-24.84 94.65-91.21c3.75-66.37-137.48-13.16-80.95-151.66 56.54-138.5 107.64-141.93 80.95-228.26-26.69-86.34-98.36-131.66-181.62-97.38s-91.09 254.4-91.09 254.4" stroke="#D0D5F6" stroke-width="2"/></svg>
