<svg width="473.652" height="761.168" fill="none" xmlns="http://www.w3.org/2000/svg"><path d="M172.7 2.96S19.56 35.39 13.26 122.03c-6.31 86.65 231.6 17.19 136.36 198-95.25 180.82-181.32 185.29-136.36 298C58.22 730.74 178.94 789.91 319.2 745.16c140.25-44.75 153.45-332.13 153.45-332.13" stroke="#D0D5F6" stroke-width="2"/><path d="M214.68 2.96S94.56 31.44 89.61 107.53c-4.95 76.1 181.68 15.1 106.97 173.9C121.87 440.22 54.34 444.15 89.61 543.14c35.27 98.99 129.98 150.95 240 111.64 110.02-39.3 120.37-291.68 120.37-291.68" stroke="#D0D5F6" stroke-width="2"/><path d="M250.92.96s-90.91 24.84-94.65 91.21c-3.74 66.36 137.49 13.16 80.95 151.66-56.54 138.5-107.64 141.93-80.95 228.26 26.69 86.34 98.36 131.66 181.62 97.38s91.09-254.4 91.09-254.4" stroke="#D0D5F6" stroke-width="2"/></svg>
